#tb 0: 1/15
#media_type 0: video
#codec_id 0: rawvideo
#dimensions 0: 640x480
#sar 0: 0/1
0,          0,          0,        1,   921600, 0x00000000
0,          1,          1,        1,   921600, 0x00000000
0,          2,          2,        1,   921600, 0x00000000
0,          3,          3,        1,   921600, 0x00000000
0,          4,          4,        1,   921600, 0x00000000
0,          5,          5,        1,   921600, 0x00000000
0,          6,          6,        1,   921600, 0x00000000
0,          7,          7,        1,   921600, 0x00000000
0,          8,          8,        1,   921600, 0x00000000
0,          9,          9,        1,   921600, 0x00000000
0,         10,         10,        1,   921600, 0x0aa05443
0,         11,         11,        1,   921600, 0x81d2a7fe
0,         12,         12,        1,   921600, 0x769f303b
0,         13,         13,        1,   921600, 0xcd68d0cd
0,         14,         14,        1,   921600, 0x4cb4894a
